<svg xmlns="http://www.w3.org/2000/svg" width="34.356" height="13.862" viewBox="0 0 34.356 13.862">
  <path id="Icon_ionic-ios-arrow-round-back" data-name="Icon ionic-ios-arrow-round-back" d="M34.6,11.51A.919.919,0,0,0,34.6,12.8l4.268,4.282-30.076.007a.914.914,0,0,0,0,1.828l30.076-.007L34.59,23.2A.925.925,0,0,0,34.6,24.49a.91.91,0,0,0,1.287-.007l5.794-5.836h0a1.026,1.026,0,0,0,.19-.288.872.872,0,0,0,.07-.352.916.916,0,0,0-.26-.64l-5.794-5.836A.9.9,0,0,0,34.6,11.51Z" transform="translate(-7.732 -11.102)" fill="#272727" stroke="#b5d6d8" stroke-width="0.3"/>
</svg>
