<svg xmlns="http://www.w3.org/2000/svg" width="30.25" height="30.25" viewBox="0 0 30.25 30.25">
  <path id="Icon_ionic-md-happy" data-name="Icon ionic-md-happy" d="M18,3.375A14.625,14.625,0,1,0,32.625,18,14.621,14.621,0,0,0,18,3.375ZM18,29.7A11.7,11.7,0,1,1,29.7,18,11.735,11.735,0,0,1,18,29.7Zm5.119-13.163a2.194,2.194,0,1,0-2.194-2.194A2.154,2.154,0,0,0,23.119,16.538Zm-10.237,0a2.194,2.194,0,1,0-2.194-2.194A2.154,2.154,0,0,0,12.881,16.538ZM18,26.044a7.968,7.968,0,0,0,7.459-5.119H10.541A7.968,7.968,0,0,0,18,26.044Z" transform="translate(-2.875 -2.875)" fill="none" stroke="#f63379" stroke-width="1"/>
</svg>
