<svg xmlns="http://www.w3.org/2000/svg" width="144.007" height="49.876" viewBox="0 0 144.007 49.876">
  <g id="Homepage" transform="translate(0 -0.018)">
    <g id="Desktop-HD" transform="translate(1 1.018)">
      <g id="Categories" transform="translate(0 0)">
        <g id="Okta" transform="translate(0 0)">
          <g id="Logo-line" transform="translate(0 0)">
            <path id="Fill-1" d="M96.144,26.273a8.972,8.972,0,0,0-17.942-.18,8.972,8.972,0,1,0,17.942.18m2.648,13.57a17.665,17.665,0,0,1-13.274,4.208,17.315,17.315,0,0,1-10.669-4.876,17.88,17.88,0,0,1-3.613-20.933A17.787,17.787,0,0,1,89.143,8.509,17.931,17.931,0,0,1,96,10.737c.011-.195.018-.314.026-.433a4.888,4.888,0,0,1,.056-.737,1.469,1.469,0,0,1,1.338-1.1c.057,0,.114,0,.171,0,1.961,0,3.922.016,5.883-.007a1.5,1.5,0,0,1,1.533,1.531q0,1.5,0,3,0,6.094,0,12.188c0,.9-.009,1.793.023,2.689a19.038,19.038,0,0,0,.376,3.717,5.886,5.886,0,0,0,.475,1.344,3.434,3.434,0,0,0,2.324,1.79,7.618,7.618,0,0,0,1.747.247c.3.007.609.055.911.037a1.055,1.055,0,0,1,1,.981c0,.086,0,.172,0,.257,0,2.06-.008,4.12.006,6.18a1.191,1.191,0,0,1-.6,1.09,3.469,3.469,0,0,1-1.228.443,8.825,8.825,0,0,1-1.842.177c-.685-.01-1.372,0-2.053-.061a9.529,9.529,0,0,1-5.714-2.319,9.217,9.217,0,0,1-1.424-1.6c-.064-.092-.133-.182-.227-.309" transform="translate(30.127 3.624)" fill="none" stroke="#272727" stroke-width="2" fill-rule="evenodd"/>
            <path id="Fill-3" d="M28.035,23.837V1.663c0-.1.006-.21,0-.315A1.27,1.27,0,0,1,29.283.025c.085-.006.171-.006.257-.006q2.956,0,5.912,0a1.887,1.887,0,0,1,.7.109,1.258,1.258,0,0,1,.833,1.156c.005.133,0,.267,0,.4q0,9.871,0,19.742a3.119,3.119,0,0,0,.045.6,1.534,1.534,0,0,0,1.132,1.24,1.5,1.5,0,0,0,1.6-.4c.648-.672,1.277-1.362,1.912-2.047q2.215-2.389,4.428-4.781,1.573-1.7,3.144-3.4a1.6,1.6,0,0,1,1.242-.536q3.756.007,7.511,0a1.36,1.36,0,0,1,1.384.864,1.512,1.512,0,0,1-.261,1.681l-5.293,5.887q-2.809,3.124-5.616,6.251a8.573,8.573,0,0,0-.681.881,1.738,1.738,0,0,0-.044,2.064,7.946,7.946,0,0,0,.891,1.184c1.594,1.666,3.209,3.311,4.817,4.963q2.85,2.929,5.7,5.859,1.644,1.691,3.283,3.385a1.464,1.464,0,0,1,.262,1.675,1.311,1.311,0,0,1-1.315.871q-4.17,0-8.339,0a1.556,1.556,0,0,1-1.207-.534c-1.182-1.268-2.384-2.518-3.581-3.773q-2.288-2.4-4.58-4.794c-.89-.928-1.789-1.848-2.684-2.772-.325-.335-.645-.675-.973-1.007a1.617,1.617,0,0,0-2.781,1.046c0,.1,0,.21,0,.315q0,4.964,0,9.928a2.288,2.288,0,0,1-.028.455A1.371,1.371,0,0,1,35.73,47.6c-.095.008-.19.009-.285.009q-2.942,0-5.883,0a2.082,2.082,0,0,1-.784-.124,1.066,1.066,0,0,1-.739-1.018c0-.143,0-.286,0-.429q0-11.1,0-22.2" transform="translate(12.18 -0.018)" fill="none" stroke="#272727" stroke-width="2" fill-rule="evenodd"/>
            <path id="Fill-5" d="M17.824,35.248a8.989,8.989,0,1,0-8.985-8.991,8.969,8.969,0,0,0,8.985,8.991M0,26.266A17.791,17.791,0,0,1,17.807,8.4a17.237,17.237,0,0,1,12.584,5.206,17.453,17.453,0,0,1,5.247,12.984A17.82,17.82,0,0,1,0,26.266" transform="translate(0 3.625)" fill="none" stroke="#272727" stroke-width="2" fill-rule="evenodd"/>
            <path id="Fill-7" d="M53.3,15.945q0-7.153,0-14.307a3.341,3.341,0,0,1,.034-.541A1.238,1.238,0,0,1,54.522.024c.085-.006.171-.006.257-.006q2.928,0,5.855,0a2.039,2.039,0,0,1,.481.04A1.34,1.34,0,0,1,62.169,1.44c0,1.955,0,3.911,0,5.866q0,1.531.012,3.061A1.693,1.693,0,0,0,63.81,12.1c.114.008.228.005.343.005h7.626a1.384,1.384,0,0,1,1.469,1.352c.014.142.015.286.015.429q0,2.69,0,5.379a2.543,2.543,0,0,1-.044.568,1.364,1.364,0,0,1-1.407,1.1q-3.784,0-7.569,0c-.114,0-.229,0-.343,0A1.691,1.691,0,0,0,62.23,22.4a4.542,4.542,0,0,0-.039.6c0,2.3.008,4.6,0,6.9a8.856,8.856,0,0,0,2.35,6.182,8.74,8.74,0,0,0,4.833,2.747,8.5,8.5,0,0,0,3.092.075,1.376,1.376,0,0,1,1.587.871,2.217,2.217,0,0,1,.108.53c.161,1.506.316,3.013.475,4.519.045.426.087.853.142,1.278a1.458,1.458,0,0,1-1.21,1.613,16.649,16.649,0,0,1-3.045.168A17.892,17.892,0,0,1,54.252,35.808a16.149,16.149,0,0,1-.852-3.959c-.059-.721-.1-1.446-.1-2.17q-.013-6.867,0-13.735" transform="translate(23.157 -0.018)" fill="none" stroke="#272727" stroke-width="2" fill-rule="evenodd"/>
          </g>
        </g>
      </g>
    </g>
  </g>
</svg>
