<svg xmlns="http://www.w3.org/2000/svg" width="19.562" height="28" viewBox="0 0 19.562 28">
  <path id="Icon_awesome-lightbulb" data-name="Icon awesome-lightbulb" d="M5.066,23.959a1.688,1.688,0,0,0,.283.933l.9,1.355a1.687,1.687,0,0,0,1.4.753h3.254a1.687,1.687,0,0,0,1.4-.753l.9-1.355a1.687,1.687,0,0,0,.283-.933l0-2.022H5.063l0,2.022ZM0,9.281a9.229,9.229,0,0,0,2.3,6.105A15.154,15.154,0,0,1,5.05,20.209c0,.014,0,.027.006.041h8.45c0-.014,0-.027.006-.041a15.154,15.154,0,0,1,2.753-4.822A9.279,9.279,0,1,0,0,9.281ZM9.281,5.062A4.224,4.224,0,0,0,5.062,9.281a.844.844,0,0,1-1.687,0A5.913,5.913,0,0,1,9.281,3.375a.844.844,0,0,1,0,1.687Z" transform="translate(0.5 0.5)" fill="none" stroke="#f63379" stroke-width="1"/>
</svg>
