<svg id="Layer_2" data-name="Layer 2" xmlns="http://www.w3.org/2000/svg" width="67.423" height="166.856" viewBox="0 0 67.423 166.856">
  <g id="Layer_1" data-name="Layer 1" transform="translate(0)">
    <path id="Path_1" data-name="Path 1" d="M16.411,399.745A34.637,34.637,0,0,0,18.5,412.515a16.722,16.722,0,0,0,6.118,7.969,16.9,16.9,0,0,0,9.7,2.722,17.573,17.573,0,0,0,8.176-1.82,14.047,14.047,0,0,0,5.551-5.044,16.288,16.288,0,0,0,2.385-7.4H66v1.551a25.663,25.663,0,0,1-4.6,13.694,28.213,28.213,0,0,1-11.213,9.279A36.839,36.839,0,0,1,34.2,436.81q-10.98,0-18.617-4.439A28.626,28.626,0,0,1,3.971,419.616Q0,411.323,0,399.745V389.6q0-11.578,4-19.932a29.268,29.268,0,0,1,11.664-12.888q7.667-4.534,18.528-4.537a38.188,38.188,0,0,1,12.382,1.941,29.791,29.791,0,0,1,9.936,5.579A26.927,26.927,0,0,1,66,379.4v1.49H50.423a17.521,17.521,0,0,0-2.416-7.756,14.692,14.692,0,0,0-5.579-5.34,16.54,16.54,0,0,0-8.116-1.941,16.46,16.46,0,0,0-9.639,2.8,17.377,17.377,0,0,0-6.146,8.118,34.889,34.889,0,0,0-2.117,12.888Z" transform="translate(0 -269.954)" fill="#bfbfbf"/>
    <path id="Path_2" data-name="Path 2" d="M57.883,50.573a24.969,24.969,0,0,0,7.394-4.752,24.609,24.609,0,0,0,5.761-8A25.849,25.849,0,0,0,73.28,26.8a27.634,27.634,0,0,0-3.5-14.145A23.624,23.624,0,0,0,59.63,3.313,35.7,35.7,0,0,0,43.557,0H9.73V84.7h3.862a34.22,34.22,0,0,1,6.345-4.8,35.559,35.559,0,0,1,6.352-2.941h0V53.114H41.305L51.841,75.541a40.182,40.182,0,0,1,4.672,1.271,35.276,35.276,0,0,1,11.765,6.614c.479.409.934.829,1.39,1.271H74.88ZM51.9,37.168q-4.065,3.348-11.015,3.35H26.3V13.157H41.135q6.635,0,10.746,3.591t4.093,10.365Q55.962,33.82,51.9,37.168Z" transform="translate(-7.457)" fill="#bfbfbf"/>
  </g>
</svg>
