<svg xmlns="http://www.w3.org/2000/svg" width="188.54" height="60.78" viewBox="0 0 188.54 60.78">
  <g id="Desktop-HD" transform="translate(1 1)">
    <g id="Categories" transform="translate(0 0)">
      <g id="Okta" transform="translate(0 0)">
        <g id="Logo-line" transform="translate(0 0)">
          <path id="Fill-1" d="M96.144,26.273a8.972,8.972,0,0,0-17.942-.18,8.972,8.972,0,1,0,17.942.18m2.648,13.57a17.665,17.665,0,0,1-13.274,4.208,17.315,17.315,0,0,1-10.669-4.876,17.88,17.88,0,0,1-3.613-20.933A17.787,17.787,0,0,1,89.143,8.509,17.931,17.931,0,0,1,96,10.737c.011-.195.018-.314.026-.433a4.888,4.888,0,0,1,.056-.737,1.469,1.469,0,0,1,1.338-1.1c.057,0,.114,0,.171,0,1.961,0,3.922.016,5.883-.007a1.5,1.5,0,0,1,1.533,1.531q0,1.5,0,3,0,6.094,0,12.188c0,.9-.009,1.793.023,2.689a19.038,19.038,0,0,0,.376,3.717,5.886,5.886,0,0,0,.475,1.344,3.434,3.434,0,0,0,2.324,1.79,7.618,7.618,0,0,0,1.747.247c.3.007.609.055.911.037a1.055,1.055,0,0,1,1,.981c0,.086,0,.172,0,.257,0,2.06-.008,4.12.006,6.18a1.191,1.191,0,0,1-.6,1.09,3.469,3.469,0,0,1-1.228.443,8.825,8.825,0,0,1-1.842.177c-.685-.01-1.372,0-2.053-.061a9.529,9.529,0,0,1-5.714-2.319,9.217,9.217,0,0,1-1.424-1.6c-.064-.092-.133-.182-.227-.309" transform="translate(74.66 14.528)" fill="none" stroke="#272727" stroke-width="2" fill-rule="evenodd"/>
          <path id="Fill-3" d="M28.035,29.287V2.039c0-.129.006-.258,0-.387A1.452,1.452,0,0,1,29.283.027c.085-.007.171-.007.257-.007q2.956,0,5.912,0a1.57,1.57,0,0,1,.7.134,1.556,1.556,0,0,1,.833,1.421c.005.164,0,.328,0,.492q0,12.13,0,24.26a4.692,4.692,0,0,0,.045.733,1.787,1.787,0,0,0,1.132,1.524,1.32,1.32,0,0,0,1.6-.49c.648-.826,1.277-1.674,1.912-2.515q2.215-2.936,4.428-5.875,1.573-2.087,3.144-4.176a1.481,1.481,0,0,1,1.242-.658q3.756.009,7.511,0a1.37,1.37,0,0,1,1.384,1.061A2.192,2.192,0,0,1,59.127,18q-2.646,3.618-5.293,7.234-2.809,3.839-5.616,7.681a10.571,10.571,0,0,0-.681,1.082,2.537,2.537,0,0,0-.044,2.536,9.863,9.863,0,0,0,.891,1.455c1.594,2.047,3.209,4.068,4.817,6.1q2.85,3.6,5.7,7.2,1.644,2.077,3.283,4.16a2.118,2.118,0,0,1,.262,2.058,1.339,1.339,0,0,1-1.315,1.07q-4.17,0-8.339,0a1.445,1.445,0,0,1-1.207-.657c-1.182-1.558-2.384-3.094-3.581-4.636q-2.288-2.948-4.58-5.891c-.89-1.141-1.789-2.271-2.684-3.407-.325-.412-.645-.829-.973-1.237a1.567,1.567,0,0,0-.893-.581c-.944-.21-1.85.681-1.888,1.866,0,.129,0,.258,0,.387q0,6.1,0,12.2a3.445,3.445,0,0,1-.028.559,1.5,1.5,0,0,1-1.228,1.313,2.628,2.628,0,0,1-.285.011q-2.942,0-5.883,0a1.734,1.734,0,0,1-.784-.152,1.314,1.314,0,0,1-.739-1.252c0-.176,0-.352,0-.527q0-13.642,0-27.283" transform="translate(28.847 -0.018)" fill="none" stroke="#272727" stroke-width="2" fill-rule="evenodd"/>
          <path id="Fill-5" d="M17.824,35.248a8.989,8.989,0,1,0-8.985-8.991,8.969,8.969,0,0,0,8.985,8.991M0,26.266A17.791,17.791,0,0,1,17.807,8.4a17.237,17.237,0,0,1,12.584,5.206,17.453,17.453,0,0,1,5.247,12.984A17.82,17.82,0,0,1,0,26.266" transform="translate(0 14.529)" fill="none" stroke="#272727" stroke-width="2" fill-rule="evenodd"/>
          <path id="Fill-7" d="M53.3,19.572q0-8.783,0-17.565a5.023,5.023,0,0,1,.034-.664A1.366,1.366,0,0,1,54.522.026c.085-.007.171-.007.257-.007q2.928,0,5.855,0a1.672,1.672,0,0,1,.481.049,1.622,1.622,0,0,1,1.053,1.7c0,2.4,0,4.8,0,7.2q0,1.879.012,3.759a1.946,1.946,0,0,0,1.627,2.124c.114.01.228.007.343.007h7.626c.837,0,1.387.62,1.469,1.66.014.174.015.351.015.526q0,3.3,0,6.6a3.817,3.817,0,0,1-.044.7,1.453,1.453,0,0,1-1.407,1.349q-3.784,0-7.569,0c-.114,0-.229,0-.343,0A1.856,1.856,0,0,0,62.23,27.5a6.83,6.83,0,0,0-.039.735c0,2.822.008,5.644,0,8.467a12.376,12.376,0,0,0,2.35,7.59,8.516,8.516,0,0,0,4.833,3.372,6.956,6.956,0,0,0,3.092.092,1.356,1.356,0,0,1,1.587,1.07,3.271,3.271,0,0,1,.108.651q.242,2.774.475,5.549c.045.523.087,1.048.142,1.569a1.768,1.768,0,0,1-1.21,1.981,13.606,13.606,0,0,1-3.045.207,16.054,16.054,0,0,1-11.111-5.406,22.42,22.42,0,0,1-5.155-9.416A23.77,23.77,0,0,1,53.4,39.1c-.059-.885-.1-1.776-.1-2.664q-.013-8.431,0-16.863" transform="translate(51.407 -0.018)" fill="none" stroke="#272727" stroke-width="2" fill-rule="evenodd"/>
        </g>
      </g>
    </g>
  </g>
</svg>
