<svg xmlns="http://www.w3.org/2000/svg" width="29.69" height="26.72" viewBox="0 0 29.69 26.72">
  <path id="Icon_awesome-hand-holding-heart" data-name="Icon awesome-hand-holding-heart" d="M13.711,12.476a.868.868,0,0,0,1.27,0l5.424-5.688A4.129,4.129,0,0,0,20.126.871a3.786,3.786,0,0,0-5.225.384l-.558.583-.553-.578A3.782,3.782,0,0,0,8.567.871a4.133,4.133,0,0,0-.279,5.917Zm14.444,3.865a1.649,1.649,0,0,0-2.122,0l-4.6,3.681a3.171,3.171,0,0,1-1.992.7H13.547a.8.8,0,1,1,0-1.594h3.9A1.658,1.658,0,0,0,19.105,17.8a1.6,1.6,0,0,0-1.574-1.863H9.563a5.862,5.862,0,0,0-3.691,1.31L3.556,19.125H.8a.8.8,0,0,0-.8.8V24.7a.8.8,0,0,0,.8.8H18.568a3.191,3.191,0,0,0,1.992-.7l7.531-6.026A1.593,1.593,0,0,0,28.155,16.341Z" transform="translate(0.5 0.72)" fill="none" stroke="#f63379" stroke-width="1"/>
</svg>
