<svg xmlns="http://www.w3.org/2000/svg" width="251" height="85.948" viewBox="0 0 251 85.948">
  <g id="Desktop-HD" transform="translate(1 1)">
    <g id="Categories" transform="translate(0 0)">
      <g id="Okta" transform="translate(0 0)">
        <g id="Logo-line">
          <path id="Fill-1" d="M116.341,39.74a15.731,15.731,0,0,0-31.46-.315,15.732,15.732,0,1,0,31.46.315m4.643,23.795a30.974,30.974,0,0,1-23.276,7.379A30.36,30.36,0,0,1,79,62.363a31.352,31.352,0,0,1-6.335-36.7,31.188,31.188,0,0,1,31.4-17.066A31.441,31.441,0,0,1,116.092,12.5c.02-.341.031-.55.045-.759a8.567,8.567,0,0,1,.1-1.293,2.576,2.576,0,0,1,2.347-1.935c.1,0,.2,0,.3,0,3.438,0,6.877.027,10.315-.012a2.625,2.625,0,0,1,2.688,2.684q0,2.634,0,5.268,0,10.685,0,21.371c0,1.572-.015,3.145.039,4.715a33.383,33.383,0,0,0,.66,6.518,10.321,10.321,0,0,0,.832,2.356,6.021,6.021,0,0,0,4.075,3.138,13.358,13.358,0,0,0,3.063.432c.533.012,1.068.1,1.6.065a1.849,1.849,0,0,1,1.757,1.721c.008.15.009.3.009.451,0,3.612-.014,7.224.011,10.836a2.089,2.089,0,0,1-1.052,1.911,6.083,6.083,0,0,1-2.153.776,15.474,15.474,0,0,1-3.23.31c-1.2-.018-2.405,0-3.6-.108a16.708,16.708,0,0,1-10.019-4.066,16.162,16.162,0,0,1-2.5-2.8c-.113-.162-.234-.318-.4-.541" transform="translate(105.068 12.682)" fill="none" stroke="#012ac4" stroke-width="2" fill-rule="evenodd"/>
          <path id="Fill-3" d="M28.038,41.783V2.9c0-.184.01-.369,0-.552A2.226,2.226,0,0,1,30.227.03c.15-.01.3-.01.45-.01q5.183,0,10.366,0a3.309,3.309,0,0,1,1.227.191,2.207,2.207,0,0,1,1.46,2.027c.009.234,0,.468,0,.7q0,17.308,0,34.616a5.468,5.468,0,0,0,.079,1.046A2.69,2.69,0,0,0,45.8,40.775a2.632,2.632,0,0,0,2.809-.7c1.136-1.178,2.239-2.389,3.352-3.589Q55.846,32.3,59.726,28.1q2.758-2.978,5.513-5.959a2.808,2.808,0,0,1,2.177-.939q6.585.013,13.17,0a2.385,2.385,0,0,1,2.426,1.514,2.651,2.651,0,0,1-.458,2.948q-4.639,5.162-9.281,10.323-4.926,5.478-9.847,10.961A15.029,15.029,0,0,0,62.235,48.5a3.047,3.047,0,0,0-.076,3.619,13.932,13.932,0,0,0,1.563,2.076c2.795,2.921,5.627,5.805,8.446,8.7q5,5.136,9.994,10.273,2.882,2.964,5.757,5.936a2.567,2.567,0,0,1,.46,2.936,2.3,2.3,0,0,1-2.305,1.527q-7.311,0-14.622,0a2.728,2.728,0,0,1-2.116-.937c-2.073-2.224-4.18-4.415-6.278-6.615q-4.012-4.206-8.032-8.405c-1.561-1.628-3.137-3.241-4.705-4.861-.569-.588-1.131-1.183-1.707-1.765a2.836,2.836,0,0,0-4.876,1.834c-.007.184,0,.368,0,.552q0,8.7,0,17.408a4.011,4.011,0,0,1-.049.8,2.4,2.4,0,0,1-2.153,1.874c-.166.015-.333.016-.5.016q-5.158,0-10.316,0a3.651,3.651,0,0,1-1.375-.217,1.869,1.869,0,0,1-1.3-1.786c-.009-.251-.006-.5-.006-.752q0-19.465,0-38.931" transform="translate(42.476 -0.018)" fill="none" stroke="#012ac4" stroke-width="2" fill-rule="evenodd"/>
          <path id="Fill-5" d="M31.253,55.475A15.762,15.762,0,1,0,15.5,39.71,15.726,15.726,0,0,0,31.253,55.475M0,39.727A31.2,31.2,0,0,1,31.224,8.4a30.223,30.223,0,0,1,22.065,9.128,30.6,30.6,0,0,1,9.2,22.767A31.245,31.245,0,0,1,0,39.727" transform="translate(0 12.686)" fill="none" stroke="#012ac4" stroke-width="2" fill-rule="evenodd"/>
          <path id="Fill-7" d="M53.3,27.945q0-12.543,0-25.086a5.858,5.858,0,0,1,.06-.948A2.171,2.171,0,0,1,55.448.029c.15-.01.3-.01.45-.01q5.133,0,10.267,0a3.575,3.575,0,0,1,.843.069,2.349,2.349,0,0,1,1.847,2.421c.006,3.428,0,6.857,0,10.285q0,2.684.021,5.368A2.969,2.969,0,0,0,71.733,21.2c.2.014.4.009.6.009H85.7a2.426,2.426,0,0,1,2.576,2.37c.024.249.026.5.026.752q0,4.716,0,9.432a4.458,4.458,0,0,1-.077,1,2.392,2.392,0,0,1-2.466,1.927q-6.636,0-13.271,0c-.2,0-.4,0-.6,0a2.965,2.965,0,0,0-2.926,2.583,7.959,7.959,0,0,0-.068,1.049c0,4.03.014,8.061-.008,12.092a15.529,15.529,0,0,0,4.121,10.839,15.324,15.324,0,0,0,8.474,4.816,14.906,14.906,0,0,0,5.421.132,2.412,2.412,0,0,1,2.782,1.527,3.887,3.887,0,0,1,.189.929c.283,2.641.555,5.283.832,7.924.079.748.153,1.5.249,2.241a2.557,2.557,0,0,1-2.122,2.829,29.193,29.193,0,0,1-5.339.3A31.373,31.373,0,0,1,54.973,62.773a28.316,28.316,0,0,1-1.495-6.942c-.1-1.265-.172-2.536-.174-3.8q-.023-12.041-.008-24.083" transform="translate(80.758 -0.017)" fill="none" stroke="#012ac4" stroke-width="2" fill-rule="evenodd"/>
        </g>
      </g>
    </g>
  </g>
</svg>
